<svg xmlns="http://www.w3.org/2000/svg" viewBox="0 0 308.25 229.39"><defs><style>.cls-1{fill:#e9e5e4;}.cls-2{isolation:isolate;}.cls-3{fill:#1e1b3c;}.cls-4{fill:#929293;}.cls-5{fill:#1f1d1b;}.cls-6{fill:#2f2e2f;}.cls-7{fill:#292976;}.cls-8{fill:#292a78;}.cls-9{fill:#1e1a52;}.cls-10{fill:#0085bd;}.cls-11{fill:#0090ce;}.cls-12{fill:#26266e;}.cls-13{fill:#1e1b54;}.cls-14{fill:#009ee2;}.cls-15{fill:#1f1c56;}.cls-16{fill:#f9fdff;}.cls-17{fill:#006792;}.cls-18{fill:#fff;}.cls-19{fill:#2c2e83;}.cls-20{fill:#009fe3;}.cls-21{fill:#65c7f2;}.cls-22{fill:#2b2d7f;}.cls-23{fill:#006791;}.cls-24{fill:#008fcc;}.cls-25{fill:#ca1321;}.cls-26{fill:#901213;}.cls-27{fill:#ba131e;}</style></defs><g id="Warstwa_2" data-name="Warstwa 2"><g id="Layer_1" data-name="Layer 1"><polygon class="cls-1" points="308.25 170.87 100.7 51.04 0 109.56 207.56 229.39 308.25 170.87"/><g class="cls-2"><path class="cls-3" d="M104.76,57c.07-.62.16-1.21.28-1.78,0-.07,0-.15,0-.22.12-.56.27-1.08.43-1.59l.1-.31a15.62,15.62,0,0,1,.6-1.5l0-.06a12.66,12.66,0,0,1,.73-1.31,10.19,10.19,0,0,1,1.36-1.68c.11-.12.23-.23.35-.34a9.69,9.69,0,0,1,1.67-1.27L36.81,89.66a9.32,9.32,0,0,0-1.67,1.27l-.36.34A10.76,10.76,0,0,0,33.43,93l0,.05a11.44,11.44,0,0,0-.68,1.25.16.16,0,0,0,0,.07h0a9.74,9.74,0,0,0-.48,1.14c0,.11-.08.24-.12.36s-.07.2-.1.3-.09.24-.12.37c-.1.32-.19.65-.26,1,0,.08,0,.16,0,.23s0,.15,0,.23-.08.34-.11.52-.1.62-.14.94l0,.32a1.49,1.49,0,0,0,0,.21c0,.14,0,.27-.05.42s0,.61-.05.93,0,.48,0,.72l73.55-42.74c0-.72,0-1.41.12-2.08C104.75,57.12,104.75,57.05,104.76,57Z"/><path class="cls-4" d="M60,119c0-5.83-4.08-13-9.18-15.9s-9.22-.57-9.24,5.27,4.09,13,9.18,15.92S59.94,124.82,60,119Z"/><path class="cls-5" d="M66.72,124.85a13.87,13.87,0,0,1-.22,1.5l0,.19c-.1.46-.22.91-.35,1.34a2.09,2.09,0,0,1-.08.23c-.13.4-.28.78-.44,1.15l-.06.13a10.77,10.77,0,0,1-.64,1.16,8.85,8.85,0,0,1-1.11,1.37l-.3.29a8,8,0,0,1-1.36,1L135.69,90.5a7.78,7.78,0,0,0,1.35-1l.3-.29a8.39,8.39,0,0,0,1.11-1.38,0,0,0,0,0,0,0,10.45,10.45,0,0,0,.61-1.1s0,0,0,0l.06-.13c.11-.24.22-.48.31-.74s.09-.27.14-.4.05-.16.07-.24a1.72,1.72,0,0,0,.07-.21c.08-.26.15-.54.22-.82l.06-.3a1.42,1.42,0,0,1,0-.2l.06-.29c0-.25.08-.5.11-.77s0-.29.05-.44,0-.1,0-.15a1.1,1.1,0,0,0,0-.18c0-.25,0-.5.05-.76s0-.51,0-.78v0c0-.24,0-.49,0-.73s0-.51,0-.77a1.49,1.49,0,0,0,0-.21.76.76,0,0,0,0-.15l0-.42-.09-.79-.06-.42s0-.1,0-.16l0-.23c0-.27-.09-.54-.14-.81s-.09-.45-.14-.68v0a.36.36,0,0,1,0-.11c-.07-.28-.13-.56-.2-.84s-.15-.56-.22-.85-.17-.56-.25-.85l-.27-.83c-.09-.27-.19-.54-.28-.82l-.3-.78c-.1-.26-.2-.52-.31-.78l-.33-.77-.36-.78c-.13-.28-.27-.56-.41-.85s-.32-.64-.49-1-.52-.94-.8-1.41c-.38-.65-.78-1.28-1.19-1.9s-.67-1-1-1.45-.47-.63-.71-.94l-.62-.76c-.2-.25-.41-.49-.62-.73l-.63-.7c-.22-.23-.43-.46-.66-.68s-.45-.46-.67-.67-.47-.45-.71-.66L128,55c-.23-.2-.47-.39-.71-.58s-.47-.37-.71-.54l-.52-.37-.09-.06-.09-.07-.68-.45-.68-.42-.16-.09-.51-.29-.66-.34-.15-.06,0,0-.49-.22-.64-.28c-.22-.08-.43-.17-.65-.24l-.64-.21-.67-.19-.66-.14c-.23-.05-.47-.09-.7-.12l-.43,0-.14,0h-.15l-.75,0-.33,0h-.51a9.27,9.27,0,0,0-.92.14h0l-.19.05c-.31.08-.62.15-.92.26l-.07,0a7.64,7.64,0,0,0-1.23.57L39.35,94.06a8.61,8.61,0,0,1,1.23-.57c.32-.11.65-.2,1-.28l.19,0A7.72,7.72,0,0,1,43,93l.25,0a10,10,0,0,1,1.22,0h.15a14.36,14.36,0,0,1,4.55,1.29l.09.05c.52.24,1,.51,1.57.82s1.09.65,1.62,1l.09.06c.5.35,1,.72,1.47,1.12l0,0c.48.38.94.79,1.4,1.21l.05.05c.46.42.9.86,1.34,1.31l.05.05c.43.46.86.93,1.27,1.41l.06.06c.39.47.78.95,1.16,1.45l.13.17c.3.4.59.81.88,1.22l.31.44c.19.27.36.55.54.83s.43.67.63,1,.52.88.76,1.33l.13.23c.31.56.6,1.14.87,1.71,0,0,0,0,0,.08.28.59.54,1.19.79,1.79l0,.07q.36.87.66,1.74l0,.16c.2.57.38,1.15.55,1.72l0,.12c.18.61.33,1.22.46,1.83h0c.14.61.24,1.21.34,1.81a.59.59,0,0,0,0,.14c.08.56.14,1.12.19,1.67a.81.81,0,0,0,0,.16q.06.89.06,1.74c0,.61,0,1.2-.08,1.77C66.73,124.75,66.73,124.8,66.72,124.85Z"/><path class="cls-6" d="M66.82,122.93c0-10.19-7.14-22.62-16-27.74s-16.1-1-16.13,9.17,7.15,22.63,16,27.76S66.79,133.14,66.82,122.93Zm-25.29-14.6c0-5.84,4.15-8.21,9.24-5.27S60,113.13,60,119s-4.14,8.23-9.24,5.29S41.52,114.18,41.53,108.33Z"/><polygon class="cls-7" points="95.49 4.75 21.93 47.49 43.95 59.44 117.51 16.69 95.49 4.75"/><polygon class="cls-8" points="130.08 23.66 56.53 66.41 95.63 90.67 169.18 47.92 130.08 23.66"/><polygon class="cls-9" points="149.17 7.28 75.62 50.02 56.53 66.41 130.08 23.66 149.17 7.28"/><polygon class="cls-10" points="169.26 19.51 95.71 62.25 95.63 90.67 169.18 47.92 169.26 19.51"/><polygon class="cls-11" points="149.17 7.28 75.62 50.02 95.71 62.25 169.26 19.51 149.17 7.28"/><polygon class="cls-8" points="196.5 64.87 171.37 49.27 97.82 92.02 122.94 107.61 196.5 64.87"/><polygon class="cls-12" points="171.45 20.84 97.9 63.59 97.82 92.02 171.37 49.27 171.45 20.84"/><g class="cls-2"><path class="cls-13" d="M248.58,126.72,175,169.46a10,10,0,0,0-3.42,3.35l73.55-42.74A9.94,9.94,0,0,1,248.58,126.72Z"/><path class="cls-3" d="M243,137a1.65,1.65,0,0,0,0-.21c.07-.62.17-1.21.28-1.79,0-.07,0-.15.05-.22.12-.56.26-1.08.42-1.59,0-.1.07-.2.1-.3a15.82,15.82,0,0,1,.6-1.51.16.16,0,0,0,0-.07,10.44,10.44,0,0,1,4.11-4.59L175,169.46a10.06,10.06,0,0,0-3.41,3.34h0c-.25.4-.48.82-.7,1.26l0,.06h0q-.25.56-.48,1.14l-.12.36-.1.3-.12.37c-.1.32-.18.65-.26,1,0,.07,0,.15-.05.22s0,.15,0,.23-.08.35-.11.53-.1.61-.14.93l0,.32c0,.07,0,.14,0,.21s0,.28,0,.42c0,.3,0,.61-.05.93s0,.48,0,.72l73.55-42.74Q242.86,138,243,137Z"/></g><polygon class="cls-11" points="196.58 36.12 171.45 20.84 97.9 63.59 123.02 78.86 196.58 36.12"/><polygon class="cls-10" points="123.02 78.86 122.94 107.61 196.5 64.87 196.58 36.12 123.02 78.86"/><polygon class="cls-12" points="125.2 80.18 125.12 108.95 198.67 66.21 198.75 37.44 125.2 80.18"/><polygon class="cls-11" points="198.75 37.44 125.2 80.18 140.5 89.49 214.05 46.75 198.75 37.44"/><polygon class="cls-8" points="198.67 66.21 125.12 108.95 167.94 135.51 241.49 92.77 198.67 66.21"/><polygon class="cls-14" points="214.05 46.75 140.5 89.49 167.94 135.51 241.49 92.77 214.05 46.75"/><path class="cls-5" d="M262.73,132.34l-.16-.1-.51-.28c-.22-.12-.44-.24-.66-.34l-.65-.31c-.22-.1-.43-.19-.65-.27l-.65-.25c-.21-.08-.43-.15-.64-.21l-.06,0,.06,0c-.22-.07-.45-.13-.67-.18l-.31-.07-.14,0-.21-.05c-.23-.05-.47-.08-.7-.12l-.42,0h-.15l-.15,0c-.25,0-.5,0-.75,0h-.58l-.26,0a7,7,0,0,0-.92.13h0l-.19.06a7.36,7.36,0,0,0-.92.25l-.06,0a7.75,7.75,0,0,0-1.24.57l-73.55,42.75a6.87,6.87,0,0,1,1.23-.57,8.07,8.07,0,0,1,1-.29l.19,0a7.87,7.87,0,0,1,1.2-.15h.25a10.16,10.16,0,0,1,1.23,0l.14,0a10.86,10.86,0,0,1,1.34.2l.14,0A17.17,17.17,0,0,1,189,175c6.65,3.84,12.34,11.77,14.77,19.79l0,.11c.19.62.35,1.23.49,1.85a.85.85,0,0,1,0,.17c.15.63.27,1.27.38,1.9v0c.1.64.17,1.27.23,1.89,0,.05,0,.11,0,.16.05.62.08,1.24.07,1.85s0,1.2-.08,1.77a.77.77,0,0,1,0,.15q-.08.78-.21,1.5a1.29,1.29,0,0,0,0,.19,13.11,13.11,0,0,1-.35,1.34,2.25,2.25,0,0,1-.08.24c-.13.39-.28.78-.44,1.14l-.06.13a8.62,8.62,0,0,1-.64,1.16,8.85,8.85,0,0,1-1.11,1.37c-.1.11-.2.2-.3.3a8.31,8.31,0,0,1-1.35,1l73.55-42.75a7.42,7.42,0,0,0,1.35-1,2.76,2.76,0,0,0,.3-.29,8,8,0,0,0,1.12-1.38h0c.22-.35.42-.72.61-1.1l0-.05.05-.12c.11-.25.22-.49.31-.75s.09-.27.14-.4a2.25,2.25,0,0,1,.08-.24c0-.07,0-.13.07-.21.07-.26.15-.54.21-.82l.06-.3c0-.07,0-.13,0-.19l.06-.29c0-.26.08-.51.11-.77s0-.3.05-.45,0-.1,0-.15a1.1,1.1,0,0,0,0-.18c0-.25,0-.5.05-.76s0-.51,0-.78v0c0-.24,0-.48,0-.73s0-.51,0-.77l0-.36a.76.76,0,0,0,0-.15c0-.09,0-.18,0-.27,0-.26-.05-.53-.09-.79s-.07-.54-.11-.8v-.06c0-.25-.09-.5-.13-.76s-.11-.55-.17-.83c0-.1-.05-.2-.07-.3a1.16,1.16,0,0,1,0-.18l-.09-.36c-.07-.29-.14-.57-.22-.86s-.12-.41-.19-.62l0-.12,0-.1c-.09-.28-.17-.56-.27-.83h0c-2.47-7.37-7.61-14.49-13.66-18.33l0,0Z"/><path class="cls-15" d="M50.81,91c10.79,6.24,19.51,21.26,19.61,33.7l98.87,57.08c.17-12.29,8.94-17.21,19.74-11s19.52,21.25,19.61,33.7l13.58,7.84.09-30.24L177.17,141l-33.63-54.3L70.92,42.74,44,59.44l-22-11.95L13.3,58.3l-.09,33.52L31.07,102C31.23,89.72,40,84.8,50.81,91ZM125.2,80.18l15.29,9.31,27.45,46L125.12,109ZM97.9,63.59,123,78.86l-.08,28.75L97.82,92ZM75.62,50,95.71,62.25l-.08,28.42L56.53,66.4Z"/><path class="cls-16" d="M70.42,124.73l98.87,57.08c.09-7.14,3.12-11.77,7.74-13.19v-27.9L143.54,86.65,70.92,42.74,44,59.44l-.24-.13V88.48A19.46,19.46,0,0,1,50.81,91C61.6,97.27,70.32,112.29,70.42,124.73ZM125.2,80.18l15.29,9.31,27.45,46L125.12,109ZM97.9,63.59,123,78.86l-.08,28.75L97.82,92ZM75.62,50,95.71,62.25l-.08,28.42L56.53,66.4Z"/><polygon class="cls-17" points="75.62 50.02 56.53 66.41 95.63 90.67 95.71 62.25 75.62 50.02"/><polygon class="cls-17" points="123.02 78.86 97.9 63.59 97.82 92.02 122.94 107.61 123.02 78.86"/><path class="cls-4" d="M198.17,198.77c0-5.84-4.1-13-9.18-15.9s-9.22-.57-9.24,5.26,4.09,13,9.18,15.92S198.16,204.62,198.17,198.77Z"/><polygon class="cls-17" points="125.2 80.18 125.12 108.95 167.94 135.51 140.5 89.49 125.2 80.18"/><polygon class="cls-18" points="217.1 43.91 144.47 0 70.92 42.74 143.54 86.65 217.1 43.91"/><path class="cls-6" d="M205,202.73c0-10.19-7.14-22.61-16-27.74s-16.11-1-16.14,9.17,7.15,22.64,16,27.77S205,212.94,205,202.73Zm-25.29-14.6c0-5.83,4.15-8.21,9.24-5.26s9.2,10.06,9.18,15.9-4.16,8.21-9.24,5.28S179.74,194,179.75,188.13Z"/><polygon class="cls-19" points="217.1 43.91 143.54 86.65 177.17 140.95 250.73 98.21 217.1 43.91"/><polygon class="cls-20" points="215.53 50.18 150 88.26 178.74 134.68 244.27 96.59 215.53 50.18"/><path class="cls-21" d="M182.59,69.32l-5.1,3v60.36l1.25,2,4.18-2.43C183.08,115.83,182.84,89.57,182.59,69.32Z"/><polygon class="cls-21" points="215.53 50.18 211 52.81 211 115.93 215.69 113.21 215.69 50.44 215.53 50.18"/><path class="cls-21" d="M192.26,63.7v63.12l13.34-7.75V56Z"/><polygon class="cls-12" points="295.86 139.4 222.31 182.14 222.22 212.38 295.77 169.63 295.86 139.4"/><polygon class="cls-6" points="243.88 173.21 243.88 186.51 276.93 167.31 276.93 154.01 243.88 173.21"/><polygon class="cls-6" points="295.8 161.56 222.24 204.3 222.22 212.38 295.77 169.63 295.8 161.56"/><polygon class="cls-22" points="250.73 98.21 177.17 140.95 222.31 182.14 295.86 139.4 250.73 98.21"/></g><polygon class="cls-18" points="238.13 175.63 224.62 183.48 224.57 200.05 238.13 192.17 238.13 175.63"/><polygon class="cls-18" points="281.48 150.44 281.48 166.98 293.48 160 293.53 143.44 281.48 150.44"/><path class="cls-6" d="M78.71,109.32l8.78,5a1.68,1.68,0,0,0,2.78-1.55v-4.4a6.08,6.08,0,0,0-2.76-4.75L76.07,97l0,16.32,2.6,1.5,0-5.61Zm0-7.63.13-.07,8.71,5,.13.23v4.41l-.13.08-8.71-5-.13-.23Z"/><path class="cls-6" d="M94.34,123.93l8.72,5a1.93,1.93,0,0,0,2,.2,1.9,1.9,0,0,0,.82-1.78l0-10a6.06,6.06,0,0,0-2.75-4.74l-8.72-5a1.85,1.85,0,0,0-1.94-.2,1.82,1.82,0,0,0-.81,1.76l0,10a6,6,0,0,0,2.73,4.74Zm-.09-13.26.13-.08,8.72,5,.12.22,0,10-.12.1-8.72-5-.13-.25Z"/><polygon class="cls-6" points="108.06 115.45 108.01 131.82 122.22 140.03 122.23 137.03 110.62 130.33 110.66 116.96 108.06 115.45"/><polygon class="cls-6" points="123.63 124.48 123.59 140.82 126.19 142.32 126.24 125.99 123.63 124.48"/><path class="cls-6" d="M130.69,131.55l11.43,6.6v-3l-11.43-6.6a1.89,1.89,0,0,0-1.95-.2,1.85,1.85,0,0,0-.8,1.77l0,10a5.38,5.38,0,0,0,.79,2.7,5.25,5.25,0,0,0,1.94,2l11.43,6.6v-3l-11.43-6.6-.14-.25,0-10Z"/><polygon class="cls-6" points="157.28 146.91 157.29 143.91 144.21 136.37 144.17 152.7 157.24 160.25 157.25 157.25 146.81 151.23 146.82 147.55 155.23 152.41 155.24 149.41 146.83 144.56 146.84 140.88 157.28 146.91"/><g class="cls-2"><polygon class="cls-10" points="206.32 37.85 206.28 22.95 181.74 37.12 181.78 52.02 182.05 51.86 206.32 37.85"/><polygon class="cls-6" points="171.43 45.69 171.15 45.85 181.78 52.02 182.05 51.86 171.43 45.69"/><polygon class="cls-23" points="181.74 37.12 171.11 30.95 171.15 45.85 181.78 52.02 181.74 37.12"/><polygon class="cls-24" points="195.65 16.78 171.11 30.95 181.74 37.12 206.28 22.95 195.65 16.78"/><polygon class="cls-6" points="182.05 51.86 181.78 52.02 181.74 37.12 157.47 51.13 157.51 66.03 157.79 65.87 182.05 51.86"/><polygon class="cls-25" points="147.16 59.7 146.89 59.86 157.51 66.03 157.79 65.87 147.16 59.7"/><polygon class="cls-6" points="157.47 51.13 146.85 44.96 146.89 59.86 157.51 66.03 157.47 51.13"/><polygon class="cls-6" points="171.11 30.95 146.85 44.96 157.47 51.13 181.74 37.12 171.11 30.95"/><polygon class="cls-26" points="133.2 65.14 122.58 58.97 122.62 73.87 133.25 80.04 133.2 65.14"/><polygon class="cls-27" points="157.47 51.13 133.2 65.14 133.25 80.04 157.51 66.03 157.47 51.13"/><polygon class="cls-27" points="157.79 65.87 157.51 66.03 157.51 66.03 157.79 65.87"/><polygon class="cls-25" points="146.85 44.96 122.58 58.97 133.2 65.14 157.47 51.13 146.85 44.96"/></g></g></g></svg>