<svg xmlns="http://www.w3.org/2000/svg" viewBox="0 0 683.66 758.24"><defs><style>.cls-1{fill:#111827;}</style></defs><g id="Warstwa_2" data-name="Warstwa 2"><g id="Warstwa_1-2" data-name="Warstwa 1"><path class="cls-1" d="M290.91,209.63a72,72,0,0,1,101.84,0L459.11,276,626.65,443.54a21.58,21.58,0,0,0,34.6-5.77c40-80.79,26.43-181.41-40.86-248.7L494.59,63.28c-84.36-84.37-221.15-84.37-305.52,0L63.27,189.07c-84.36,84.36-84.36,221.16,0,305.53l253.1,253.09a36,36,0,0,0,50.93,0L561.85,553.15a21.55,21.55,0,0,0,0-30.47L453.29,414.13a21.53,21.53,0,0,0-30.47,0L352,484.93a14.39,14.39,0,0,1-20.37,0L224.56,377.84a72,72,0,0,1,0-101.84Z"/></g></g></svg>