<svg xmlns="http://www.w3.org/2000/svg" xmlns:xlink="http://www.w3.org/1999/xlink" viewBox="0 0 308.25 228.82"><defs><style>.cls-1{fill:none;}.cls-2{fill:#e9e5e4;}.cls-3{isolation:isolate;}.cls-4{fill:#8b5a19;}.cls-5{fill:#929293;}.cls-6{fill:#1f1d1b;}.cls-7{fill:#2f2e2f;}.cls-8{fill:#ffcf28;}.cls-9{fill:#292a78;}.cls-10{fill:#1e1a52;}.cls-11{fill:#0085bd;}.cls-12{fill:#0090ce;}.cls-13{fill:#26266e;}.cls-14{fill:#1e1b54;}.cls-15{fill:#009ee2;}.cls-16{fill:#f3ae00;}.cls-17{fill:#006792;}.cls-18{fill:#ffdb25;}.cls-19{fill:#f7aa49;}.cls-20{fill:#009fe3;}.cls-21{fill:#fff;}.cls-22{fill:#dbdbdb;}.cls-23{fill:#888;}.cls-24{fill:#b7b7b7;}.cls-25{fill:gray;}.cls-26{clip-path:url(#clip-path);}.cls-27{fill:#858585;}.cls-28{clip-path:url(#clip-path-2);}.cls-29{clip-path:url(#clip-path-3);}.cls-30{fill:#9e9e9e;}.cls-31{fill:#b8b8b8;}.cls-32{clip-path:url(#clip-path-4);}.cls-33{fill:#999;}</style><clipPath id="clip-path"><path class="cls-1" d="M160,35.42l8.62,5a1,1,0,0,1,.42.94l-8.62-5A1,1,0,0,0,160,35.42Z"/></clipPath><clipPath id="clip-path-2"><path class="cls-1" d="M167.49,40.53l-8.63-5a1,1,0,0,1,1.07-.11l8.62,5A1,1,0,0,0,167.49,40.53Z"/></clipPath><clipPath id="clip-path-3"><path class="cls-1" d="M160,35.42l8.62,5,0,0-8.62-5Z"/></clipPath><clipPath id="clip-path-4"><path class="cls-1" d="M161.24,45.86l-8.62-5a2.88,2.88,0,0,1,.43-1.47,3,3,0,0,1,1.06-1.12l8.62,5a3,3,0,0,0-1,1.11A2.9,2.9,0,0,0,161.24,45.86Z"/></clipPath></defs><g id="Warstwa_2" data-name="Warstwa 2"><g id="Layer_1" data-name="Layer 1"><polygon class="cls-2" points="0 108.99 207.56 228.82 308.25 170.3 100.7 50.47 0 108.99"/><g class="cls-3"><path class="cls-4" d="M34.9,90.93l-.36.34A10.76,10.76,0,0,0,33.19,93l0,.05a13.44,13.44,0,0,0-.68,1.25.43.43,0,0,0,0,.07h0a9.74,9.74,0,0,0-.48,1.14c-.05.11-.08.24-.12.36s-.07.2-.1.3-.09.24-.12.37c-.1.32-.18.65-.26,1,0,.08,0,.16-.05.23s0,.15,0,.23-.08.34-.11.52-.1.62-.14.94l0,.32a1.49,1.49,0,0,0,0,.21c0,.14,0,.27-.05.42s0,.61,0,.93,0,.48,0,.72l73.55-42.74c0-.72.05-1.41.12-2.08,0-.07,0-.14,0-.21.07-.62.16-1.21.28-1.78a1.7,1.7,0,0,0,0-.22c.12-.56.27-1.08.43-1.59l.1-.31a15.62,15.62,0,0,1,.6-1.5l0-.06a12.66,12.66,0,0,1,.73-1.31,10.19,10.19,0,0,1,1.36-1.68c.11-.12.23-.23.35-.34a9.21,9.21,0,0,1,1.67-1.27L36.57,89.66A9.32,9.32,0,0,0,34.9,90.93Z"/><path class="cls-5" d="M41.29,108.33c0,5.85,4.09,13,9.18,15.92s9.23.57,9.24-5.29-4.08-13-9.18-15.9S41.31,102.49,41.29,108.33Z"/><path class="cls-6" d="M66.48,124.85a13.87,13.87,0,0,1-.22,1.5l0,.19c-.1.46-.22.91-.35,1.34a2.09,2.09,0,0,1-.08.23c-.13.4-.28.78-.44,1.15l-.06.13a10.77,10.77,0,0,1-.64,1.16,8.85,8.85,0,0,1-1.11,1.37l-.3.29a8,8,0,0,1-1.36,1L135.45,90.5a7.42,7.42,0,0,0,1.35-1l.3-.29a7.9,7.9,0,0,0,1.11-1.38s0,0,0,0a10.45,10.45,0,0,0,.61-1.1s0,0,0,0l.06-.13c.11-.24.22-.48.31-.74s.09-.27.14-.4,0-.16.07-.24a1.72,1.72,0,0,0,.07-.21c.08-.27.15-.54.22-.82l.06-.3c0-.07,0-.13,0-.2l.06-.29c0-.25.08-.5.11-.77s0-.29,0-.44,0-.1,0-.15a1.1,1.1,0,0,0,0-.18c0-.25,0-.5.05-.76s0-.51,0-.78v0c0-.24,0-.49,0-.73s0-.51,0-.77a1.49,1.49,0,0,0,0-.21.76.76,0,0,0,0-.15l0-.43-.09-.78-.06-.42s0-.1,0-.16l0-.23c-.05-.27-.09-.54-.14-.81s-.09-.45-.14-.68v0a.36.36,0,0,1,0-.11c-.07-.28-.13-.56-.2-.84s-.15-.56-.22-.85-.17-.56-.25-.85l-.27-.83c-.09-.27-.18-.54-.28-.82l-.3-.78c-.1-.26-.2-.52-.31-.78l-.33-.77c-.12-.26-.23-.52-.36-.78s-.27-.56-.41-.85-.32-.64-.49-1-.52-.94-.8-1.41c-.38-.65-.77-1.28-1.19-1.9s-.67-1-1-1.45-.47-.63-.71-.94-.41-.51-.62-.76-.41-.49-.62-.73l-.63-.7c-.21-.23-.43-.46-.66-.68l-.67-.67c-.24-.23-.47-.45-.71-.66l-.72-.63c-.23-.2-.47-.39-.71-.58s-.47-.37-.71-.54l-.52-.37-.09-.06-.09-.07L125,53l-.68-.42-.16-.09-.51-.29-.66-.34-.14-.06,0,0-.48-.22-.65-.28c-.22-.08-.43-.17-.65-.24s-.43-.15-.64-.21l-.67-.19-.66-.14c-.23-.05-.47-.09-.7-.12l-.42,0-.15,0h-.15l-.75,0-.33,0H116a9.27,9.27,0,0,0-.92.14h0l-.19.05c-.31.08-.62.15-.92.26l-.07,0a8.06,8.06,0,0,0-1.23.57L39.11,94.06a8.61,8.61,0,0,1,1.23-.57c.32-.11.65-.2,1-.28l.19,0a7.87,7.87,0,0,1,1.2-.15L43,93a10,10,0,0,1,1.22,0h.15a14.36,14.36,0,0,1,4.55,1.29l.09.05c.52.24,1,.51,1.58.82s1.08.65,1.61,1l.09.06c.5.35,1,.72,1.47,1.12l0,0c.48.38.94.79,1.4,1.21l.06.05c.45.42.89.86,1.33,1.31l0,.05c.43.46.86.93,1.27,1.41l.06.06c.4.47.78.95,1.16,1.45a1.09,1.09,0,0,1,.13.17c.3.4.6.81.88,1.22l.31.44c.19.27.36.55.54.83s.43.67.63,1,.52.88.76,1.33a1.71,1.71,0,0,1,.13.23c.31.56.6,1.14.87,1.71,0,0,0,0,0,.08.28.59.54,1.19.79,1.79l0,.07q.36.87.66,1.74a.75.75,0,0,1,0,.16c.2.57.38,1.15.55,1.72l0,.12c.18.61.33,1.22.46,1.83h0c.14.61.25,1.21.34,1.81a.59.59,0,0,0,0,.14c.08.56.14,1.12.19,1.67a.81.81,0,0,0,0,.16c0,.59.07,1.17.06,1.74s0,1.2-.08,1.77C66.49,124.75,66.49,124.8,66.48,124.85Z"/><path class="cls-7" d="M34.42,104.36c0,10.21,7.15,22.63,16,27.76s16.1,1,16.13-9.19-7.14-22.62-16-27.74S34.45,94.17,34.42,104.36ZM59.71,119c0,5.86-4.14,8.23-9.24,5.29s-9.19-10.07-9.18-15.92,4.15-8.21,9.24-5.27S59.73,113.13,59.71,119Z"/><polygon class="cls-8" points="43.72 59.44 117.27 16.69 95.25 4.75 21.69 47.49 43.72 59.44"/><polygon class="cls-9" points="95.39 90.67 168.94 47.92 129.84 23.66 56.29 66.41 95.39 90.67"/><polygon class="cls-10" points="56.29 66.41 129.84 23.66 148.93 7.28 75.38 50.02 56.29 66.41"/><polygon class="cls-11" points="168.94 47.92 169.02 19.51 95.47 62.25 95.39 90.67 168.94 47.92"/><polygon class="cls-12" points="95.47 62.25 169.02 19.51 148.93 7.28 75.38 50.02 95.47 62.25"/><polygon class="cls-9" points="122.7 107.61 196.26 64.87 171.13 49.27 97.58 92.02 122.7 107.61"/><polygon class="cls-13" points="171.13 49.27 171.21 20.84 97.66 63.59 97.58 92.02 171.13 49.27"/><g class="cls-3"><path class="cls-14" d="M171.37,172.81l73.55-42.74a9.94,9.94,0,0,1,3.42-3.35l-73.55,42.74A10,10,0,0,0,171.37,172.81Z"/><path class="cls-4" d="M171.39,172.8h0c-.25.4-.48.82-.7,1.26l0,.06h0q-.25.56-.48,1.14l-.12.36-.1.3-.12.37c-.1.32-.18.65-.26,1,0,.07,0,.15-.05.22s0,.15,0,.23-.08.35-.11.53-.1.61-.14.93l0,.32c0,.07,0,.14,0,.21s0,.28,0,.42q0,.45-.06.93c0,.24,0,.48,0,.72l73.55-42.74q0-1.08.12-2.07a1.65,1.65,0,0,0,0-.21c.07-.62.17-1.21.28-1.79,0-.07,0-.15,0-.22.12-.56.26-1.08.42-1.59,0-.1.07-.2.1-.3a15.82,15.82,0,0,1,.6-1.51l.05-.07a10.37,10.37,0,0,1,4.1-4.59l-73.55,42.74A10,10,0,0,0,171.39,172.8Z"/></g><polygon class="cls-12" points="122.78 78.86 196.34 36.11 171.21 20.84 97.66 63.59 122.78 78.86"/><polygon class="cls-11" points="196.26 64.87 196.34 36.11 122.78 78.86 122.7 107.61 196.26 64.87"/><polygon class="cls-13" points="198.43 66.21 198.51 37.44 124.96 80.18 124.88 108.95 198.43 66.21"/><polygon class="cls-12" points="140.25 89.49 213.81 46.75 198.51 37.44 124.96 80.18 140.25 89.49"/><polygon class="cls-9" points="167.7 135.51 241.25 92.77 198.43 66.21 124.88 108.95 167.7 135.51"/><polygon class="cls-15" points="167.7 135.51 241.25 92.77 213.81 46.75 140.25 89.49 167.7 135.51"/><path class="cls-6" d="M204.71,204.65c-.06.52-.13,1-.22,1.5a1.29,1.29,0,0,0,0,.19,13.11,13.11,0,0,1-.35,1.34,2.25,2.25,0,0,1-.08.24c-.13.39-.28.78-.44,1.14l-.06.13a8.62,8.62,0,0,1-.64,1.16,8.85,8.85,0,0,1-1.11,1.37l-.3.3a8.31,8.31,0,0,1-1.35,1l73.55-42.75a7.42,7.42,0,0,0,1.35-1c.11-.09.21-.19.31-.29a8.49,8.49,0,0,0,1.11-1.38h0c.22-.35.42-.72.61-1.1l0-.05.05-.12c.11-.25.22-.49.31-.75s.09-.27.14-.4a2.25,2.25,0,0,1,.08-.24c0-.07,0-.13.07-.21.07-.26.15-.54.21-.82l.06-.3c0-.07,0-.13,0-.19l.06-.29c0-.26.08-.51.11-.77s0-.3.05-.45,0-.1,0-.15a1.1,1.1,0,0,0,0-.18c0-.25,0-.5,0-.76s0-.51,0-.78v0c0-.24,0-.48,0-.73s0-.51,0-.77l0-.36a.76.76,0,0,0,0-.15c0-.09,0-.18,0-.27,0-.26-.05-.53-.09-.79s-.07-.54-.11-.8v-.06c0-.25-.08-.5-.13-.76s-.11-.55-.17-.83c0-.1-.05-.2-.07-.3a1.16,1.16,0,0,1,0-.18l-.09-.36c-.07-.29-.14-.57-.22-.86s-.12-.41-.19-.62l0-.12,0-.1c-.08-.28-.17-.56-.27-.83h0c-2.46-7.37-7.61-14.49-13.66-18.33l0,0-.68-.41-.16-.1-.51-.28c-.22-.12-.44-.24-.66-.34l-.65-.31c-.22-.1-.43-.19-.65-.27l-.65-.25c-.21-.08-.43-.15-.64-.21l-.06,0,.06,0c-.22-.07-.45-.13-.67-.18l-.31-.07-.14,0-.21-.05c-.23-.05-.47-.08-.7-.12l-.42,0H256l-.15,0c-.25,0-.5,0-.75,0h-.57l-.26,0a6.94,6.94,0,0,0-.93.13h0l-.19.06a6.78,6.78,0,0,0-.91.25l-.07,0a7.75,7.75,0,0,0-1.24.57l-73.55,42.75a6.87,6.87,0,0,1,1.23-.57,8.07,8.07,0,0,1,1-.29l.19,0a7.87,7.87,0,0,1,1.2-.15h.25a10.16,10.16,0,0,1,1.23,0l.14,0a10.86,10.86,0,0,1,1.34.2l.14,0a17.17,17.17,0,0,1,4.74,1.92c6.65,3.84,12.34,11.77,14.77,19.79l0,.11c.19.62.35,1.23.49,1.85a.85.85,0,0,1,0,.17c.15.63.28,1.27.38,1.9v0c.1.64.18,1.27.23,1.89,0,.05,0,.11,0,.16.05.62.08,1.24.08,1.85s0,1.2-.09,1.77C204.72,204.55,204.71,204.6,204.71,204.65Z"/><path class="cls-16" d="M70.68,42.74l-27,16.7-22-11.95L13.06,58.3,13,91.82,30.83,102C31,89.72,39.77,84.8,50.57,91s19.51,21.26,19.61,33.7l98.87,57.08c.17-12.29,8.95-17.21,19.74-11s19.52,21.25,19.61,33.7L222,212.38l.09-30.24L176.93,141,143.3,86.65ZM95.39,90.67,56.29,66.4,75.38,50,95.47,62.25Zm27.31,16.94L97.58,92l.08-28.43,25.12,15.27Zm2.18,1.34L125,80.18l15.3,9.31,27.44,46Z"/><polygon class="cls-17" points="56.29 66.41 95.39 90.67 95.47 62.25 75.38 50.02 56.29 66.41"/><polygon class="cls-17" points="122.7 107.61 122.78 78.86 97.66 63.59 97.58 92.02 122.7 107.61"/><path class="cls-5" d="M179.52,188.13c0,5.85,4.08,13,9.18,15.92s9.22.57,9.24-5.28-4.11-13-9.18-15.9S179.53,182.3,179.52,188.13Z"/><polygon class="cls-17" points="124.88 108.95 167.7 135.51 140.25 89.49 124.96 80.18 124.88 108.95"/><polygon class="cls-18" points="143.3 86.65 216.86 43.91 144.24 0 70.68 42.74 143.3 86.65"/><path class="cls-7" d="M172.64,184.16c0,10.21,7.15,22.64,16,27.77s16.11,1,16.14-9.2-7.15-22.61-16-27.74S172.67,174,172.64,184.16Zm25.29,14.61c0,5.85-4.16,8.21-9.23,5.28s-9.2-10.07-9.18-15.92,4.14-8.21,9.24-5.26S198,192.93,197.93,198.77Z"/><polygon class="cls-19" points="176.94 140.95 250.49 98.21 216.86 43.91 143.3 86.65 176.94 140.95"/><polygon class="cls-17" points="178.5 134.68 244.03 96.59 215.29 50.18 149.76 88.26 178.5 134.68"/><path class="cls-20" d="M176.25,131l2.25,3.64,3.24-1.88c0-19.37-.28-45.42-.52-62.82l-5,2.89Z"/><polygon class="cls-20" points="214.45 113.79 214.45 50.67 209.76 53.39 209.76 116.51 214.45 113.79"/><path class="cls-20" d="M204.36,119.65V56.53L191,64.28V127.4Z"/><polygon class="cls-19" points="221.98 212.38 295.54 169.63 295.62 139.4 222.07 182.14 221.98 212.38"/><polygon class="cls-7" points="243.64 186.51 276.69 167.31 276.69 154.01 243.64 173.21 243.64 186.51"/><polygon class="cls-7" points="221.98 212.38 295.54 169.63 295.56 161.56 222 204.3 221.98 212.38"/><polygon class="cls-8" points="176.94 140.95 222.07 182.14 295.62 139.4 250.49 98.21 176.94 140.95"/></g><polygon class="cls-21" points="237.89 192.17 237.89 175.63 224.38 183.48 224.34 200.05 237.89 192.17"/><polygon class="cls-21" points="281.24 166.98 293.24 160 293.29 143.44 281.24 150.44 281.24 166.98"/><polygon class="cls-7" points="99.86 115.71 99.89 106.06 104.08 108.48 104.08 106.3 93.79 100.36 93.79 102.54 97.99 104.97 97.96 114.61 99.86 115.71"/><polygon class="cls-7" points="76.61 113.78 76.63 104.95 68.92 100.5 68.9 109.33 76.61 113.78"/><polygon class="cls-7" points="76.6 122.67 84.28 127.11 84.31 118.25 76.63 113.82 76.6 122.67"/><polygon class="cls-7" points="92.04 122.69 92.06 113.86 84.36 109.42 84.33 118.24 92.04 122.69"/><polygon class="cls-7" points="99.72 136.02 99.74 127.17 92.06 122.73 92.03 131.58 99.72 136.02"/><polygon class="cls-7" points="107.47 131.6 107.49 122.77 99.79 118.33 99.76 127.15 107.47 131.6"/><polygon class="cls-7" points="115.15 144.93 115.17 136.07 107.49 131.64 107.47 140.49 115.15 144.93"/><polygon class="cls-7" points="122.9 140.51 122.93 131.68 115.22 127.23 115.2 136.06 122.9 140.51"/><polygon class="cls-7" points="130.58 153.84 130.61 144.98 122.92 140.55 122.9 149.4 130.58 153.84"/><polygon class="cls-7" points="138.33 149.42 138.36 140.59 130.65 136.14 130.63 144.97 138.33 149.42"/><polygon class="cls-7" points="146.01 162.75 146.04 153.89 138.36 149.46 138.33 158.31 146.01 162.75"/><polygon class="cls-7" points="153.77 158.33 153.79 149.5 146.09 145.05 146.06 153.88 153.77 158.33"/><polygon class="cls-7" points="161.44 171.66 161.47 162.8 153.76 158.35 153.74 167.21 161.44 171.66"/><path class="cls-7" d="M115.42,124.69l0-9.54a3.92,3.92,0,0,0-.57-2,4,4,0,0,0-1.42-1.49l-6.3-3.63a1.21,1.21,0,0,0-2,1.13l0,9.55,1.88,1.09v-4l6.5,3.76v4Zm-8.38-11v-3.4l.11,0,6.29,3.63.1.16v3.41Z"/><polygon class="cls-7" points="127.23 119.66 125.15 118.47 122.08 120.88 119.02 114.93 116.95 113.73 116.95 114.31 120.83 121.9 116.92 124.98 116.92 125.56 118.99 126.75 122.07 124.34 125.12 130.29 127.19 131.49 127.19 130.91 123.3 123.33 127.22 120.24 127.23 119.66"/><polygon class="cls-7" points="130.55 133.43 130.59 121.6 128.71 120.52 128.67 132.34 130.55 133.43"/><g class="cls-3"><polygon class="cls-22" points="179 42.8 180.42 41.98 171.79 36.97 170.38 37.79 179 42.8"/><polygon class="cls-23" points="169.26 38.43 177.89 43.45 177.88 43.01 169.26 38 169.26 38.43"/><polygon class="cls-22" points="176.34 44.34 177.89 43.45 169.26 38.43 167.71 39.33 176.34 44.34"/><polygon class="cls-23" points="171.79 36.97 180.42 41.98 180.4 33.08 171.77 28.07 171.79 36.97"/><polygon points="167.71 39.33 176.34 44.34 174 42.53 165.38 37.51 167.71 39.33"/><polygon class="cls-24" points="171.7 47.02 174 42.53 165.38 37.51 163.08 42 171.7 47.02"/><polygon points="179 42.8 180.42 41.98 180.4 33.08 178.98 33.9 179 42.8"/><polygon points="170.38 37.79 179 42.8 178.98 33.9 170.35 28.89 170.38 37.79"/><polygon points="178.98 33.9 180.4 33.08 171.77 28.07 170.35 28.89 178.98 33.9"/><polygon class="cls-25" points="169.26 38 177.88 43.01 174.93 40.7 166.3 35.68 169.26 38"/><polygon class="cls-24" points="174.93 40.7 177.86 34.97 169.24 29.95 166.3 35.68 174.93 40.7"/><polygon class="cls-22" points="170.14 47.92 171.7 47.02 163.08 42 161.51 42.91 170.14 47.92"/><polygon class="cls-23" points="169.24 29.95 177.86 34.97 177.86 34.54 169.24 29.53 169.24 29.95"/><polygon points="161.51 42.91 170.14 47.92 170.14 47.48 161.51 42.47 161.51 42.91"/><polygon points="170.14 47.48 173.06 41.77 164.44 36.76 161.51 42.47 170.14 47.48"/><polygon points="176.31 35.44 177.86 34.54 169.24 29.53 167.68 30.43 176.31 35.44"/><polygon points="174 39.94 176.31 35.44 167.68 30.43 165.37 34.92 174 39.94"/><polygon class="cls-22" points="167.59 49.39 169.02 48.56 160.4 43.55 158.97 44.38 167.59 49.39"/><polygon class="cls-23" points="160.4 43.55 169.02 48.56 169 41.38 160.38 36.37 160.4 43.55"/><polygon points="158.97 44.38 167.59 49.39 167.59 46.4 158.96 41.39 158.97 44.38"/><polygon class="cls-25" points="165.37 34.92 174 39.94 171.68 38.12 163.05 33.1 165.37 34.92"/><polygon points="164.44 36.76 173.06 41.77 170.12 39.44 161.49 34.43 164.44 36.76"/><polygon points="170.14 47.92 171.7 47.02 174 42.53 176.34 44.34 177.89 43.45 177.88 43.01 174.93 40.7 177.86 34.97 177.86 34.54 176.31 35.44 174 39.94 171.68 38.12 170.11 39.02 170.12 39.44 173.06 41.77 170.14 47.48 170.14 47.92"/><polygon points="161.49 34.43 170.12 39.44 170.11 39.02 161.49 34 161.49 34.43"/><polygon points="170.11 39.02 171.68 38.12 163.05 33.1 161.49 34 170.11 39.02"/><polygon points="158.96 39.74 167.58 44.76 167.57 42.2 158.95 37.19 158.96 39.74"/><polygon class="cls-22" points="161.26 53.04 162.69 52.22 154.07 47.2 152.64 48.03 161.26 53.04"/><g class="cls-3"><g class="cls-26"><g class="cls-3"><path class="cls-27" d="M160,35.42a1,1,0,0,1,.42.95l8.62,5a1,1,0,0,0-.42-.94Z"/></g></g></g><g class="cls-3"><g class="cls-28"><g class="cls-3"><path d="M167.49,40.53l.23-.11-8.62-5a1.34,1.34,0,0,0-.24.12Z"/><path d="M167.72,40.42a.64.64,0,0,1,.18-.06l-8.63-5-.17.06Z"/><path d="M167.9,40.36l.12,0-8.62-5-.13,0Z"/><path d="M168,40.33h.11l-8.63-5h-.1Z"/><path d="M168.13,40.32h.09l-8.63-5h-.09Z"/><path d="M168.22,40.32h.08l-8.62-5h-.09Z"/><path d="M168.3,40.33l.09,0-8.63-5-.08,0Z"/><path d="M168.39,40.35l.08,0-8.63-5a.11.11,0,0,0-.08,0Z"/><path d="M168.47,40.38l.08,0-8.63-5-.08,0Z"/><polygon points="168.55 40.42 168.55 40.42 159.93 35.41 159.92 35.41 168.55 40.42"/></g></g></g><g class="cls-3"><g class="cls-29"><g class="cls-3"><path d="M168.55,40.42h0l-8.62-5h0Z"/><polygon points="168.57 40.43 168.58 40.44 159.96 35.42 159.95 35.42 168.57 40.43"/></g></g></g><polygon class="cls-30" points="167.5 42.16 167.57 42.2 158.95 37.19 158.87 37.15 167.5 42.16"/><polygon class="cls-23" points="154.07 47.2 162.69 52.22 162.69 49.23 154.06 44.22 154.07 47.2"/><polygon class="cls-22" points="162.69 49.23 167.59 46.4 158.96 41.39 154.06 44.22 162.69 49.23"/><polygon points="162.68 47.59 167.58 44.76 158.96 39.74 154.05 42.57 162.68 47.59"/><polygon class="cls-23" points="154.05 42.57 162.68 47.59 162.67 45.03 154.05 40.02 154.05 42.57"/><polygon class="cls-21" points="162.74 44.91 162.67 45.03 162.68 47.59 167.58 44.76 167.57 42.2 167.5 42.16 162.74 44.91"/><polygon class="cls-31" points="162.67 45.03 162.74 44.91 154.11 39.89 154.05 40.02 162.67 45.03"/><polygon class="cls-22" points="162.74 44.91 167.5 42.16 158.87 37.15 154.11 39.89 162.74 44.91"/><polygon class="cls-22" points="155.85 56.17 157.28 55.34 148.65 50.33 147.22 51.16 155.85 56.17"/><polygon points="152.64 48.03 161.26 53.04 161.24 45.86 152.62 40.85 152.64 48.03"/><polygon points="162.74 43.28 167.49 40.53 158.86 35.52 154.11 38.26 162.74 43.28"/><path d="M167.59,49.39l1.43-.83,0-7.18a1,1,0,0,0-.45-1,1,1,0,0,0-1.06.11l-4.76,2.75a3,3,0,0,0-1,1.11,2.9,2.9,0,0,0-.44,1.47l0,7.18,1.43-.82v-3l4.91-2.83Zm-4.91-1.8V45l.07-.12,4.75-2.75.08.05v2.55Z"/><g class="cls-3"><g class="cls-32"><g class="cls-3"><path d="M161.24,45.86c0-.11,0-.22,0-.32l-8.62-5a1.83,1.83,0,0,0,0,.33Z"/><path d="M161.26,45.54a1.55,1.55,0,0,1,0-.21l-8.63-5,0,.2Z"/><path d="M161.3,45.33a1.24,1.24,0,0,1,0-.16l-8.63-5,0,.16Z"/><path d="M161.34,45.17s0-.09,0-.14l-8.63-5a.74.74,0,0,1,0,.14Z"/><path d="M161.38,45s0-.08.05-.13l-8.63-5s0,.09-.05.13Z"/><path d="M161.43,44.9a.61.61,0,0,1,0-.12l-8.63-5c0,.05,0,.09,0,.13Z"/><path d="M161.48,44.78l.06-.13-8.63-5-.06.12Z"/><path d="M161.54,44.65a.83.83,0,0,1,.07-.13l-8.63-5s0,.09-.07.14Z"/><path d="M153,39.5l8.63,5a.54.54,0,0,1,.07-.13v0l-8.62-5v0Z"/><path d="M161.68,44.37l.09-.13-8.63-5-.08.14Z"/><path d="M161.77,44.24l.09-.13-8.63-5-.09.13Z"/><path d="M161.86,44.11,162,44l-8.62-5a1.13,1.13,0,0,0-.1.13Z"/><path d="M162,44l.12-.14-8.63-5a1.34,1.34,0,0,0-.11.14Z"/><path d="M162.07,43.84l.15-.17-8.63-5-.15.16Z"/><path d="M162.22,43.67a2.66,2.66,0,0,1,.51-.39l-8.62-5a2.78,2.78,0,0,0-.52.4Z"/></g></g></g><polygon class="cls-23" points="151.79 41.23 160.42 46.25 160.41 44.62 151.79 39.6 151.79 41.23"/><polygon class="cls-23" points="148.65 50.33 157.28 55.34 157.26 48.07 148.63 43.06 148.65 50.33"/><polygon class="cls-22" points="157.26 48.07 160.42 46.25 151.79 41.23 148.63 43.06 157.26 48.07"/><polygon points="147.22 51.16 155.85 56.17 155.83 48.9 147.2 43.88 147.22 51.16"/><polygon class="cls-22" points="152.67 50.72 155.83 48.9 147.2 43.88 144.04 45.71 152.67 50.72"/><polygon points="152.67 49.09 160.41 44.62 151.79 39.6 144.04 44.08 152.67 49.09"/><polygon points="144.04 45.71 152.67 50.72 152.67 49.09 144.04 44.08 144.04 45.71"/><polygon points="160.41 44.62 152.67 49.09 152.67 50.72 155.83 48.9 155.85 56.17 157.28 55.34 157.26 48.07 160.42 46.25 160.41 44.62"/><polygon class="cls-33" points="147.68 64.38 151.36 46.35 142.74 41.34 139.05 59.37 147.68 64.38"/><path class="cls-21" d="M147.68,64.38l37.77-21.81-3.77-13.73L151.36,46.35Zm32.72-31.3,0,8.9L179,42.8l0-8.9Zm-8.72,5L174,39.94l2.31-4.5,1.55-.9V35l-2.93,5.73,3,2.31v.44l-1.56.89L174,42.53,171.7,47l-1.56.9v-.44l2.92-5.71-2.95-2.33V39Zm-10,6.28a3,3,0,0,1,1-1.11l4.76-2.75a1,1,0,0,1,1.06-.11,1,1,0,0,1,.45,1l0,7.18-1.43.83v-3l-4.91,2.83v3l-1.43.82,0-7.18A2.9,2.9,0,0,1,161.68,44.39Zm-1.27.23v1.63l-3.16,1.82,0,7.27-1.43.83,0-7.27-3.16,1.82V49.09Z"/><polygon class="cls-22" points="151.36 46.35 181.68 28.84 173.05 23.83 142.74 41.34 151.36 46.35"/></g></g></g></svg>