<svg xmlns="http://www.w3.org/2000/svg" viewBox="0 0 494.12 764.35"><defs><style>.cls-1{isolation:isolate;}.cls-2{fill:#354c5e;}.cls-3{fill:#293b49;}.cls-4{fill:#141d24;}.cls-5{fill:#ffd428;}.cls-6{fill:#ffbf33;}.cls-7{fill:#a83732;}.cls-8{fill:#403438;}.cls-9{fill:#f0bca8;}.cls-10{fill:#5c4b51;}.cls-11{fill:#4d3e43;}.cls-12{fill:#c4baa1;}.cls-13{fill:#e3ded1;}.cls-14{fill:#e0a38b;}.cls-15{fill:#ba5523;}.cls-16{fill:#c4a98f;mix-blend-mode:multiply;}</style></defs><g class="cls-1"><g id="Warstwa_2" data-name="Warstwa 2"><g id="Layer_1" data-name="Layer 1"><path class="cls-2" d="M136,666v0c1.3-.85,3.12-.8,5.16.38a15.74,15.74,0,0,1,7.12,12.33c0,2.33-.85,3.93-2.2,4.65h0l-8.37,4.84L127.43,671Z"/><path class="cls-3" d="M125.56,675.41a15.73,15.73,0,0,0,7.11,12.33c3.93,2.27,7.12.43,7.12-4.11a15.74,15.74,0,0,0-7.12-12.33C128.74,669,125.56,670.87,125.56,675.41Z"/><path class="cls-4" d="M128.87,677.32a8.4,8.4,0,0,0,3.8,6.59c2.1,1.22,3.81.23,3.81-2.19a8.41,8.41,0,0,0-3.81-6.59C130.57,673.91,128.87,674.9,128.87,677.32Z"/><path class="cls-2" d="M131.25,674.63a4,4,0,0,0-.16,1.1,8.41,8.41,0,0,0,3.81,6.58,3.52,3.52,0,0,0,1.42.5c-.45,1.59-1.9,2.11-3.65,1.1a8.4,8.4,0,0,1-3.8-6.59C128.87,675.48,129.86,674.48,131.25,674.63Z"/><path class="cls-2" d="M75.34,701.08h0c1.29-.84,3.12-.79,5.16.39a15.74,15.74,0,0,1,7.12,12.33c0,2.33-.85,3.93-2.2,4.65h0l-8.37,4.83L66.75,706.05Z"/><path class="cls-3" d="M64.88,710.51A15.73,15.73,0,0,0,72,722.84c3.93,2.26,7.12.43,7.12-4.11A15.74,15.74,0,0,0,72,706.4C68.06,704.13,64.88,706,64.88,710.51Z"/><path class="cls-4" d="M68.19,712.42A8.4,8.4,0,0,0,72,719c2.1,1.21,3.81.23,3.81-2.2A8.41,8.41,0,0,0,72,710.23C69.89,709,68.19,710,68.19,712.42Z"/><path class="cls-2" d="M70.57,709.73a4,4,0,0,0-.16,1.09,8.41,8.41,0,0,0,3.81,6.59,3.68,3.68,0,0,0,1.42.5C75.19,719.5,73.73,720,72,719a8.4,8.4,0,0,1-3.8-6.59C68.19,710.58,69.18,709.57,70.57,709.73Z"/><path class="cls-5" d="M10.75,496.15,102,443.47c3-1.75,5.75-1.86,7.71-.66h0l44.89,26-41.85,91.37v64.62c0,6.86-4.81,15.2-10.75,18.62L77.32,657.7,47.63,722.53,3.19,696.91h0c-2-1.11-3.2-3.52-3.2-7V514.77C0,507.92,4.81,499.58,10.75,496.15Z"/><path class="cls-6" d="M54.92,521.65,146.17,469c5.94-3.42,10.75-.64,10.75,6.21V650.33c0,6.86-4.81,15.2-10.75,18.63L54.93,721.64c-5.94,3.42-10.76.64-10.76-6.21V540.28C44.17,533.42,49,525.08,54.92,521.65Z"/><path class="cls-2" d="M75.87,527.86h4v-100c0-6.65,4.86-15.07,10.61-18.39l22.09-12.75c2.45-1.42,4.65-1.7,6.2-.81s2.4,2.94,2.4,5.78v100h4v-100c0-4.34-1.57-7.63-4.42-9.27s-6.48-1.35-10.23.81L88.49,406c-7.08,4.09-12.62,13.7-12.62,21.88Z"/><path class="cls-7" d="M89.51,411.76a3.93,3.93,0,0,0,2-.54l22.09-12.75a4,4,0,1,0-4-7L87.49,404.25a4,4,0,0,0,2,7.51Z"/><path class="cls-3" d="M77.88,710.56a4,4,0,0,0,4-4V495.6a4,4,0,0,0-8.06,0V706.53A4,4,0,0,0,77.88,710.56Z"/><path class="cls-3" d="M123.21,684.39a4,4,0,0,0,4-4V469.43a4,4,0,1,0-8,0V680.36A4,4,0,0,0,123.21,684.39Z"/><path class="cls-8" d="M349.64,697.45S355,710.82,363,717.92s27,20.46,27.42,30.83-17.05,19.1-40.79,14.19-24.29-18.28-30.7-24.83-9.82-7.5-11.19-16.78a119.41,119.41,0,0,1-.95-19.24Z"/><path class="cls-8" d="M239.19,555.9s15.76,16.37,19.24,23.94,9.75,26.81-17.53,23.54-34.66-27.22-39.36-30.9S178.2,566.34,174.93,553s11.87-24.55,23.33-26.4S239.19,555.9,239.19,555.9Z"/><path class="cls-3" d="M353.19,392v79.82c0,13.5,2.66,33.35-27.63,43.59s-67.81,33.15-84.66,42.16-25.75,9.1-36.6-3.59-13-23.43-8.29-28.14,75.72-59.14,75.72-59.14l50.55-78.59,4.5-28.85Z"/><path class="cls-2" d="M323.31,413.25s11.46,67.95,11.46,84.32-5.73,84.32-2,108.88,19.44,82.68,18.62,90.46-36.83,18-47.07,7c0,0-3.48-13.72-6.14-29.68s-17.3-59.14-19.29-79.82S256.72,468.92,240.9,422.26Z"/><path class="cls-9" d="M135.43,377.1a183,183,0,0,1-1.2,18.83c-1,7.09-8.57,21.28-13.52,28s-17.29,6.55-21.57,6.27-14.65-6.55-12.25-13.23,8.27-5.73,9-11.05,2-16.1,4.51-21.15,6.76-12.14,6.76-12.14Z"/><path class="cls-8" d="M156.92,294.55s-9,43.19-9.82,53.42-8.19,33.56-7.57,33.56-25,0-41.55-9.21c0,0,3.89-23.33,6.75-36.22S118.86,271,118.86,271Z"/><path class="cls-10" d="M463.29,268.36s6.82,9.82-1.91,26.19-23.33,16.92-23.33,16.92l-10.51-8.05,17.06-35.06,12.69-1.77Z"/><path class="cls-9" d="M448.13,272s18.16,11.07,25.12,15.71,16.92,11,18.69,14.33,2.18,20.33,2.18,23.74-4.91,13.1-14.87,17.74-6.41-1.64-7-9.28-2.84-17.88-6.46-20.6-6.09,3-6.22,5.18,9.82,8.05,10.77,13.78c.35,2.06,1.1,5.19-1.22,6.28s-13.1-6.14-18.15-10-16.1-24.29-16.1-24.29l-1.09-21.42Z"/><path class="cls-8" d="M383.07,220.06s74.9,44.75,80.22,48.3c0,0-15.42-4.09-23.74,15.42s-1.5,27.69-1.5,27.69-43-24-55-33.29-29.83-25.92-29.83-25.92Z"/><path class="cls-8" d="M329,131.44s24.55,47.69,31.38,58.6,22.65,30,22.65,30-4,28.65-29.83,32.2l-13.56-9Z"/><path class="cls-10" d="M170.09,185.81c4.36-6.82,50.75-49.93,52.66-59.62s9.59-16.1,9.59-16.1l52.7,7.44s25,4.91,33.15,6.34S329,131.44,329,131.44c18.82,34,19.64,91.28,18,112.77s1.43,64.67,6.34,86.77,5.53,53.42,1.23,65.49c-.79,2.22-2.91,4.94-5.92,7.89-.26.25-4.06,3.69-8.41-4.61-4.5-8.6-11.66-32.54-11.66-32.54v43.18s1,9.1-7.49,13.75c-11.52,6.61-23.19,11.72-30,12.24-16,1.23-55.87,5.53-62.42-19s-7.36-119.52-17-142.24S165.72,192.64,170.09,185.81Z"/><path class="cls-11" d="M318.19,123.87c8.19,1.43,10.85,7.57,10.85,7.57,18.82,34,19.64,91.28,18,112.77s1.43,64.67,6.34,86.77,5.53,53.42,1.23,65.49c-.79,2.22-2.91,4.94-5.92,7.89-.26.25-4.06,3.69-8.41-4.61-3.31-6.32-8.05-20.92-10.33-28.22l-.45-1.45L311.65,259,306,228,259.38,126.27l2.37-12L285,117.53S310,122.44,318.19,123.87Z"/><path class="cls-12" d="M279.75,137.58S313.5,182.24,311.65,259c0,0-20.83-52-44.41-73.86s-37.61-39.66-37.61-39.66Z"/><path class="cls-13" d="M224.1,121.81a33,33,0,0,1,8.24-11.72L266,114.84l6,13.33s12.74,13.57,15.61,23.39-4.09-7.61-18-6.87c0,0-6.41,5.92-7.23,20.38C262.34,165.07,217.69,154.17,224.1,121.81Z"/><path class="cls-14" d="M232.34,100.4c0,.41-1.81,15.29-3,22.52s26.06,19.1,36.57,21.55,3.68-17,7.23-20.87-34.52-27.29-34.52-27.29Z"/><path class="cls-9" d="M290.83,33.41s8.46,21,9.28,25.65-4.23,14.74-2.32,21.29,6.82,10.64,8,14.19-5.59,5.18-7.5,7.78-2.19,13.64-3.82,21.82-29.88,3.55-43.12-10.91-22.92-26.88-22.92-26.88Z"/><path class="cls-15" d="M249.49,100.4s4.23,1.92,7.64-5.86,13-38.75,21-46.25S290,40,293.84,37s12.68-6.82,1.5-19.65S248.27-5.88,222.75,3.81,191.23,54.15,197.51,69s24.69,41.8,40.39,35.07C238.85,103.68,249.49,100.4,249.49,100.4Z"/><path class="cls-8" d="M197.24,192.64s22.31,32.33,0,55.87-40.32,46-40.32,46-30.49-2.66-38.06-23.53c0,0,3.07-18.62,15.55-30.9s35.68-54.31,35.68-54.31S181.89,178.11,197.24,192.64Z"/><path class="cls-16" d="M202.08,24.43c-3.72,8.7-9.28,39.71,16.52,45.56,27.53,6.25,38.17-2.08,47.42-13.18s24-17.37,24-17.37h0a59.42,59.42,0,0,0-11.91,8.85c-8,7.5-17.61,38.47-21,46.25s-7.64,5.86-7.64,5.86-10.64,3.28-11.59,3.69C222.2,110.82,203.79,83.9,197.51,69,193.56,59.66,194.49,40.07,202.08,24.43Z"/><path class="cls-9" d="M247.31,91.54s-10.25-6.69-14,.81,4,16.51,10.44,16.51,10.24-2.32,8.46-7.09A80.71,80.71,0,0,0,247.31,91.54Z"/></g></g></g></svg>